<svg xmlns="http://www.w3.org/2000/svg" width="512" height="512"><path fill="#38474f" d="m314 61 2.233.635c28.255 8.16 53.963 23.413 75.505 43.29 2.045 1.876 4.138 3.665 6.262 5.45 37.13 32.6 57.647 84.23 61 132.625 1.051 24.177-1.164 47.764-8 71l-.651 2.266c-8.221 28.116-23.4 54.17-43.345 75.578-1.862 2.003-3.621 4.062-5.379 6.156-32.6 37.13-84.23 57.647-132.625 61-24.177 1.051-47.764-1.164-71-8l-2.266-.651c-28.116-8.221-54.17-23.4-75.578-43.345-2.003-1.862-4.062-3.621-6.156-5.379-37.13-32.6-57.647-84.23-61-132.625-1.052-24.186 1.18-47.754 8-71l.635-2.233C68.83 170.854 81.654 148.015 98 128l1.366-1.694c33.403-41.211 82.672-66.807 135.19-72.587 26.77-2.685 53.65-.287 79.444 7.281"/><path fill="#fe3c00" d="m245.969 74.762 2.27-.03c16.954-.177 33.225.077 49.761 4.268l2.749.667C323.535 85.354 345.394 95.644 364 110l2.762 2.074C388.567 128.95 405.35 149.555 418 174l.948 1.817c7.124 13.857 12.093 28.794 15.427 43.995l.471 2.093c1.563 7.738 1.65 15.03 2.154 23.095H319l-5-15c-7.668-16.615-20.057-27.371-37.043-34-16.048-5.427-32.956-3.962-48.434 2.438C211.625 206.826 201.288 220.383 195 238l-2 7H75c2.523-35.316 13.136-68.663 35-97l2.074-2.762C128.382 124.167 148.351 107.296 172 95l2.083-1.097C192.038 84.565 210.982 78.83 231 76l3.227-.517c3.927-.503 7.79-.678 11.742-.721"/><path fill="#fefefe" d="M75 267h118l5 15c7.44 16.122 18.946 26.4 35.188 33.375 16.269 5.892 34.083 5.177 49.879-1.888C299.15 305.774 309.46 293.582 316 277l3-10h118c0 24.057-7.535 47.545-18 69l-.944 1.963C401.094 372.819 372.119 400.219 338 418l-1.83.957C301.213 436.924 257.473 443.174 219 434l-2.28-.504c-46.859-10.45-87.567-39.4-113.72-79.496-3.229-5.21-6.168-10.566-9-16l-.957-1.83C84.28 319.118 79.12 300.854 76 282l-.602-3.57c-.44-3.787-.398-7.618-.398-11.43"/><path fill="#fdfdfd" d="M283.121 222.527c9.562 7.683 14.491 18.867 16.227 30.88.528 12.679-4.91 24.55-13.332 33.741-8.797 8.08-20.526 12.31-32.399 12.13-12.542-1.33-23.825-7.128-31.863-16.79-6.345-9.001-10.13-20.427-8.754-31.488 2.858-12.911 8.176-23.161 19-31 16.702-10.32 35.295-8.869 51.121 2.527"/><path fill="#384850" d="M266.375 236.5c5.143 2.996 8.76 7.906 10.625 13.5.492 6.56.835 12.385-3 18l-1.687 2.625c-4.78 4.908-9.478 6.625-16.313 6.875-5.445-.22-9.7-1.042-14-4.5-5.832-6.342-7.383-11.356-7.27-19.926.48-5.467 2.166-9.14 6.211-12.86 7.365-5.736 16.558-7.611 25.434-3.714"/></svg>